<svg width="179" height="66" viewBox="0 0 179 66" fill="none" xmlns="http://www.w3.org/2000/svg">
<g clip-path="url(#clip0_348_4090)">
<path d="M116.549 41.0505C114.935 40.9738 114.798 39.3361 114.836 38.0863C114.895 36.1021 114.912 34.1112 114.79 32.1318C114.76 31.6555 114.205 30.9727 113.728 30.8088C112.902 30.5249 112.078 30.9585 111.556 31.6224C111.243 32.0204 110.896 32.4472 111.171 33.1033C111.339 33.504 111.044 34.0596 111.037 34.5467C111.015 36.1428 111.035 37.7394 111.027 39.3358C111.021 40.3744 110.484 40.871 109.394 40.8728C109.049 40.8734 108.66 40.9686 108.37 40.8499C107.964 40.6836 107.366 40.3958 107.317 40.0927C107.173 39.199 107.253 38.2721 107.253 37.3582C107.253 35.5849 107.32 33.8087 107.226 32.0399C107.197 31.4881 106.848 30.862 106.071 30.7586C105.222 30.6456 104.576 31.05 104.083 31.6142C103.389 32.4074 103.026 33.2943 103.095 34.3975C103.205 36.1652 103.119 37.9435 103.127 39.7172C103.131 40.5198 102.714 40.8689 101.877 40.8774C99.5167 40.9015 99.3604 40.7649 99.3604 38.5405C99.3605 35.5547 99.3603 32.5688 99.3606 29.5829C99.3606 28.859 99.2907 28.0776 100.216 27.7746C101.317 27.4143 102.488 27.7864 103.065 28.6122C105.677 27.1187 108.234 27.3647 110.16 29.2948C111.944 26.9392 117.117 27.1116 118.278 30.0653C118.819 31.4409 118.967 32.871 118.789 34.3762C118.606 35.9239 118.746 37.5056 118.745 39.0725C118.745 40.8847 118.568 41.0504 116.549 41.0505Z" fill="#744ACC"/>
<path d="M125.281 28.4034C126.662 27.3235 130.656 27.3991 131.824 29.3633C132.928 27.9146 134.485 27.6977 136.229 27.707C138.322 27.7182 140.269 29.4414 140.356 31.3824C140.481 34.2165 140.404 37.0593 140.38 39.8981C140.37 41.0555 139.295 41.2806 137.721 40.9192C136.887 40.7276 136.624 40.0985 136.624 39.3455C136.624 37.0985 136.635 34.8514 136.62 32.6044C136.61 31.274 135.91 30.6149 134.711 30.7543C133.836 30.8561 132.879 31.8659 132.858 32.6872C132.801 35.009 132.739 37.3307 132.669 39.6521C132.645 40.4768 132.237 40.8582 131.35 40.8694C129.581 40.8918 128.802 41.1497 128.893 38.6684C128.967 36.6307 128.905 34.5887 128.909 32.5487C128.91 31.7848 128.779 31.0387 127.886 30.814C127.068 30.6082 126.414 30.9808 125.834 31.5712C125.156 32.2618 124.935 33.0195 124.936 33.9459C124.938 35.9126 124.831 37.8794 124.767 39.8461C124.744 40.5157 124.368 40.8545 123.662 40.8727C123.599 40.8744 123.536 40.8683 123.474 40.8737C121.288 41.0611 120.983 40.4619 121.001 38.525C121.014 37.014 120.979 35.5023 121.01 33.9917C121.045 32.2349 121.085 30.4758 121.229 28.7254C121.258 28.378 121.752 27.8053 122.061 27.7869C122.954 27.7338 124.031 27.4001 124.611 28.5008C124.645 28.5651 125.014 28.472 125.281 28.4034Z" fill="#744ACC"/>
<path d="M150.927 31.2876C150.927 30.4896 150.884 29.7771 150.939 29.0715C150.994 28.376 151.285 27.8269 152.199 27.9095C152.479 27.9348 152.763 27.9131 153.045 27.9135C154.14 27.9152 154.686 28.4093 154.688 29.4399C154.695 32.7805 154.69 36.1212 154.692 39.4618C154.693 40.12 154.621 40.7576 153.844 41.0118C152.869 41.331 151.578 41.0186 151.124 40.3929C151.039 40.2768 150.975 40.1479 150.866 39.9651C149.351 41.1224 147.665 41.2905 145.853 40.8854C144.144 40.5036 143.203 39.3909 142.87 37.8898C142.626 36.7901 142.675 35.6264 142.654 34.4902C142.623 32.8352 142.581 31.1758 142.681 29.5256C142.717 28.9431 142.996 28.1971 143.446 27.8536C144.186 27.288 145.201 27.5487 145.911 27.9961C146.316 28.2516 146.498 28.9745 146.568 29.5115C146.653 30.167 146.472 30.8487 146.479 31.5184C146.499 33.2991 146.476 35.0857 146.629 36.8577C146.726 37.9854 148.036 38.4865 149.262 37.6832C150.318 36.9922 151.012 35.9989 150.939 34.6571C150.88 33.5661 150.927 32.47 150.927 31.2876Z" fill="#744ACC"/>
<path d="M176.414 36.9313C178.177 38.1278 177.924 39.6011 176.334 40.3175C173.856 41.4342 171.291 41.4831 168.879 40.1489C167.373 39.3159 166.706 37.8447 166.373 36.2864C165.993 34.5009 166.141 32.7593 166.902 31.0377C167.626 29.3969 169.687 27.8112 171.565 27.7455C172.88 27.6995 174.224 27.6023 175.433 28.274C177.051 29.1736 177.992 30.4832 178.017 32.2862C178.026 32.9477 177.974 33.6225 177.836 34.2699C177.682 34.9971 177.178 35.3868 176.329 35.3772C174.232 35.3535 172.134 35.3694 170.038 35.3694C169.973 37.4494 171.937 38.4072 173.684 37.9387C174.603 37.6922 175.464 37.2524 176.414 36.9313ZM170.037 32.6933C171.5 32.6933 172.963 32.6933 174.486 32.6933C174.365 31.8577 174.259 31.1753 173.27 30.9021C171.746 30.481 170.875 30.8805 170.037 32.6933Z" fill="#744ACC"/>
<path d="M87.2777 28.9251C90.3251 26.8937 94.1599 27.3097 96.3058 29.9397C97.627 31.5589 97.9048 33.495 97.6005 35.4607C97.3533 37.0576 96.8167 38.5695 95.4387 39.7057C93.4011 41.3859 91.0629 41.4129 88.7258 40.6576C86.7026 40.0037 85.6562 38.3966 85.2503 36.4492C84.8833 34.6888 84.8387 32.9169 85.644 31.2552C86.0403 30.4374 86.6937 29.7303 87.2777 28.9251ZM89.3716 36.8682C89.7915 37.7468 90.568 38.1426 91.5216 38.0083C92.4768 37.8738 93.2415 37.4601 93.5601 36.4241C93.9659 35.1043 93.9855 33.8083 93.6895 32.497C93.4811 31.574 92.4751 30.807 91.531 30.754C90.302 30.6851 89.4865 31.0804 89.1162 32.1856C88.6071 33.7053 88.5836 35.2607 89.3716 36.8682Z" fill="#744ACC"/>
<path d="M76.6237 40.8732C73.0928 39.9694 71.5988 37.6559 71.096 34.4628C70.7721 32.4053 71.0668 30.4664 71.9844 28.6697C73.0431 26.5969 74.9522 25.3307 77.3902 25.1095C79.2389 24.9417 81.1531 24.8705 82.8869 25.8043C83.5862 26.1809 84.1883 26.6108 84.112 27.4727C84.0366 28.3255 83.4244 28.8459 82.7255 29.266C82.6 29.3415 82.2678 29.2137 82.0931 29.0971C80.7492 28.2003 79.2505 28.01 77.7127 28.3801C76.0793 28.7733 75.2935 29.9545 75.0068 31.4493C74.6717 33.1963 74.7184 34.8904 75.8313 36.438C76.9519 37.9963 78.8457 38.1436 80.5121 37.6775C80.7703 37.6053 80.9992 37.4424 81.2451 37.3281C82.4811 36.7538 82.8353 36.8528 83.5304 37.962C84.216 39.0561 84.0927 39.7451 82.8965 40.2911C80.929 41.1892 78.8315 41.2643 76.6237 40.8732Z" fill="#744ACC"/>
<path d="M163.342 30.9314C162.754 30.9314 162.257 30.9314 161.655 30.9314C161.655 33.1497 161.647 35.3264 161.663 37.5029C161.666 37.8353 161.722 38.145 162.284 37.927C162.752 37.7453 163.293 37.6859 163.806 37.6654C164.184 37.6503 164.665 37.6723 164.932 37.8746C165.756 38.4995 165.551 40.3027 164.576 40.6334C162.809 41.2325 160.966 41.4354 159.248 40.5032C158.215 39.9426 157.903 38.9175 157.895 37.8385C157.88 35.5657 157.891 33.2928 157.891 31.1112C157.314 30.9253 156.729 30.8652 156.349 30.5694C156.088 30.3657 156.077 29.8405 156.016 29.4504C155.885 28.615 156.414 28.1492 157.188 28.1203C158.242 28.081 158.587 27.4576 158.819 26.6898C159.146 25.6095 159.524 25.3768 160.94 25.6168C161.746 25.7534 161.85 26.378 161.843 27.0254C161.84 27.2884 161.843 27.5515 161.843 27.9135C162.743 27.9135 163.61 27.9196 164.477 27.9116C165.227 27.9048 165.584 28.2273 165.614 28.9506C165.693 30.9023 165.674 30.9314 163.342 30.9314Z" fill="#744ACC"/>
<path d="M25.2372 63.3528C25.2372 63.7046 25.2388 63.9709 25.2368 64.2371C25.2304 65.0775 24.8568 65.484 23.9729 65.486C18.6094 65.4979 13.2459 65.4948 7.88241 65.4885C7.17238 65.4877 6.80431 65.1156 6.79574 64.4482C6.78624 63.7087 6.89795 62.9528 6.77303 62.2324C6.45855 60.4189 8.57215 58.8883 10.1428 58.8891C10.1428 58.2203 10.1428 57.5511 10.1428 56.7932C7.47013 56.7932 4.81416 56.8172 2.15991 56.7646C1.80525 56.7575 1.31883 56.4313 1.15072 56.1265C0.997959 55.8496 1.07234 55.316 1.27544 55.0525C1.46011 54.8129 1.9513 54.6833 2.30964 54.6791C4.90528 54.6489 7.5015 54.6629 10.1391 54.6629C10.1391 53.9365 10.1391 53.2732 10.1391 52.5326C9.11878 52.5326 8.12374 52.5347 7.12871 52.5321C5.61514 52.5281 5.58239 52.2849 5.52934 51.2607C5.38409 48.4567 5.32476 45.6319 5.52364 42.8338C5.71206 40.1827 7.49267 39.2538 9.83645 39.3926C10.2112 39.4148 10.5888 39.3957 11.0905 39.3957C10.2995 37.9571 9.91249 36.4939 10.3051 34.9239C10.7109 33.3013 11.7723 32.1752 13.2907 31.3972C15.6218 30.2028 18.2868 30.6508 20.0795 32.3584C21.8652 34.0593 22.5221 36.6642 20.8063 39.3957C21.5094 39.3957 22.1965 39.43 22.8785 39.3887C24.4452 39.2939 26.4324 40.8872 26.3859 42.6608C26.3124 45.4699 26.3687 48.2818 26.3651 51.0926C26.3637 52.2169 26.021 52.532 24.8266 52.5325C23.8614 52.5329 22.8962 52.5326 21.8911 52.5326C21.8911 53.2601 21.8911 53.9235 21.8911 54.625C24.0665 54.625 26.2129 54.625 28.3981 54.625C28.3981 43.1004 28.3981 31.6082 28.3981 20.0453C28.0242 20.0453 27.6874 20.0453 27.3506 20.0453C19.1015 20.0453 10.8523 20.0457 2.60321 20.045C1.29966 20.0449 0.960383 19.7269 0.959774 18.5057C0.958479 15.9021 0.957525 13.2985 0.960228 10.6949C0.961448 9.52069 1.29286 9.21634 2.55094 9.21631C7.69137 9.21618 12.8318 9.21625 17.9644 9.21625C18.3427 7.42719 18.0521 6.72832 16.6716 6.18324C16.3743 6.06585 16.0224 6.02811 15.6954 6.02738C11.3043 6.01755 6.913 6.03331 2.52208 6.00172C2.07528 5.99851 1.49863 5.84051 1.22599 5.55047C1.00064 5.31075 0.987271 4.70072 1.15359 4.38171C1.31391 4.07423 1.82288 3.74428 2.18187 3.74106C6.88627 3.69893 11.5934 3.63509 16.2951 3.74924C18.3423 3.79894 20.2631 5.27798 20.5351 7.43722C20.6068 8.00646 20.7106 8.57212 20.8058 9.17893C26.5724 9.17893 32.3583 9.17893 38.2229 9.17893C38.2229 7.38128 38.2628 5.61339 38.2117 3.84784C38.1606 2.0812 39.7808 0.362633 41.7311 0.518944C42.8296 0.606986 43.9798 0.546259 45.012 0.844253C46.5584 1.29065 47.0219 2.58728 47.0579 3.98878C47.1018 5.69887 47.0684 7.41071 47.0684 9.21625C47.4825 9.21625 47.85 9.2444 48.2113 9.21182C51.183 8.94378 53.9415 11.959 53.8864 14.5076C53.754 20.6288 53.8435 26.7542 53.8435 33.0047C55.2528 33.0047 56.6496 32.9755 58.0445 33.0111C60.6542 33.0776 62.9398 33.9551 65.0163 35.4447C67.0868 36.9301 68.5162 38.8417 69.2943 41.1329C69.726 42.4043 69.9585 43.7809 69.9967 45.1173C70.0932 48.4877 70.0293 51.8622 70.0283 55.2351C70.0279 56.4955 69.7206 56.7931 68.4274 56.7932C63.9763 56.7933 59.5253 56.7932 55.0709 56.7932C54.281 60.2242 52.4254 62.8086 48.7986 63.9443C45.2027 65.0703 41.9705 64.3549 39.2443 61.8988C37.878 60.6679 37.0726 59.0894 36.6925 57.3223C36.6475 57.1132 36.269 56.817 36.0433 56.8156C31.3444 56.7861 26.6452 56.7933 21.898 56.7933C21.898 57.5097 21.898 58.1762 21.8986 58.8431C23.9317 59.2301 25.5047 60.2451 25.2372 63.3528ZM31.0518 23.1447C30.9959 23.8665 30.8973 24.588 30.8917 25.3102C30.872 27.8574 30.884 30.4048 30.884 32.9419C35.5009 32.9419 40.0523 32.9419 44.5574 32.9419C44.5574 28.6081 44.5574 24.3372 44.5574 20.0577C39.9832 20.0577 35.4734 20.0577 30.9605 20.0577C30.9605 21.0637 30.9605 22.0573 31.0518 23.1447ZM41.9895 50.4846C40.2665 51.4734 38.5015 53.9677 39.1516 57.023C39.7616 59.8899 42.6492 62.0235 45.4755 62.13C47.8741 62.2204 49.728 61.2879 51.166 59.571C53.3627 56.9481 53.0228 53.1633 50.2832 50.9297C47.9223 49.0048 45.0158 48.6664 41.9895 50.4846ZM48.3055 20.0453C47.9095 20.0453 47.5136 20.0453 47.1182 20.0453C47.1182 24.4123 47.1182 28.6841 47.1182 32.9568C48.5616 32.9568 49.9546 32.9568 51.3466 32.9568C51.3466 28.6368 51.3466 24.3651 51.3466 20.0453C50.3617 20.0453 49.4263 20.0453 48.3055 20.0453ZM14.7001 52.3896C14.959 51.6993 15.4293 51.1647 16.2461 51.323C17.1033 51.489 17.1852 52.1992 17.1497 52.9123C17.1233 53.4429 17.1445 53.9755 17.1445 54.5073C17.1445 55.9714 17.1445 57.4354 17.1445 58.8657C17.97 58.8657 18.6728 58.8657 19.345 58.8657C19.345 56.0168 19.345 53.226 19.345 50.455C17.08 50.455 14.8734 50.455 12.6798 50.455C12.6798 53.299 12.6798 56.0902 12.6798 58.8739C13.3731 58.8739 14.0133 58.8739 14.6981 58.8739C14.6981 56.7316 14.6981 54.6387 14.7001 52.3896ZM13.965 38.797C14.1584 38.8803 14.3591 38.9513 14.5441 39.0488C15.7968 39.709 16.9713 39.4956 18.0192 38.6821C19.056 37.8772 19.51 36.8206 19.2115 35.5393C18.9121 34.2536 18.0029 33.4754 16.7102 33.2072C15.2897 32.9124 14.0809 33.3448 13.192 34.5071C12.21 35.7912 12.5715 37.666 13.965 38.797ZM40.6695 4.05806C40.6695 5.76248 40.6695 7.46691 40.6695 9.16666C42.0405 9.16666 43.3082 9.16666 44.565 9.16666C44.5907 9.06272 44.616 9.00792 44.6162 8.95307C44.6197 7.71076 44.603 6.46816 44.6254 5.22618C44.6697 2.77389 44.4753 2.78278 42.1267 2.80422C41.2456 2.81227 40.7957 3.10525 40.6695 4.05806ZM10.1811 44.2784C10.1811 43.4307 10.1811 42.583 10.1811 41.7509C8.63561 41.5301 7.97666 41.8136 8.09813 43.4978C8.1681 44.4679 8.11092 45.4461 8.11094 46.4207C8.11096 47.6787 8.11095 48.9366 8.11095 50.1704C8.86628 50.1704 9.50651 50.1704 10.1811 50.1704C10.1811 48.2294 10.1811 46.3426 10.1811 44.2784ZM21.984 50.2128C22.6239 50.2128 23.2638 50.2128 23.9197 50.2128C23.9197 47.8583 23.9199 45.6186 23.9196 43.3789C23.9195 41.895 23.5186 41.5786 21.8608 41.7939C21.8608 44.5545 21.8608 47.3211 21.984 50.2128ZM66.2739 40.3703C66.0063 39.9828 65.7386 39.5952 65.4558 39.1856C64.1284 40.555 63.887 41.7528 64.7085 43.1706C65.3506 44.2786 66.3214 44.7941 67.7462 44.6191C67.2807 43.2141 66.8262 41.8423 66.2739 40.3703Z" fill="#744ACC"/>
<path d="M45.6162 51C49.0159 51.0317 51.0639 53.2325 50.9985 56.2423C50.9612 57.9566 49.6376 59.9693 48.0827 60.5711C46.0851 61.3444 44.2897 61.092 42.6133 59.6503C39.7951 57.2265 40.8244 52.2365 44.4939 51.2772C44.8394 51.1868 45.1912 51.1207 45.6162 51ZM48.1609 54.9764C47.6465 54.2037 46.9665 53.64 46.0151 53.5827C45.1611 53.5312 44.0054 54.4532 43.7468 55.2833C43.465 56.1877 43.827 57.2969 44.5701 57.8063C45.6281 58.5315 46.5173 58.538 47.4166 57.838C48.1779 57.2456 48.6632 56.2438 48.1609 54.9764Z" fill="#744ACC"/>
</g>
<defs>
<clipPath id="clip0_348_4090">
<rect width="179" height="66" fill="white"/>
</clipPath>
</defs>
</svg>
