<svg width="71" height="66" viewBox="0 0 71 66" fill="none" xmlns="http://www.w3.org/2000/svg">
<g clip-path="url(#clip0_348_4234)">
<path d="M25.2372 63.3528C25.2372 63.7046 25.2388 63.9709 25.2368 64.2371C25.2304 65.0775 24.8568 65.484 23.9729 65.486C18.6094 65.4979 13.2459 65.4948 7.88241 65.4885C7.17238 65.4877 6.80431 65.1156 6.79574 64.4482C6.78624 63.7087 6.89795 62.9528 6.77303 62.2324C6.45855 60.4189 8.57215 58.8883 10.1428 58.8891C10.1428 58.2203 10.1428 57.5511 10.1428 56.7932C7.47013 56.7932 4.81416 56.8172 2.15991 56.7646C1.80525 56.7575 1.31883 56.4313 1.15072 56.1265C0.997959 55.8496 1.07234 55.316 1.27544 55.0525C1.46011 54.8129 1.9513 54.6833 2.30964 54.6791C4.90528 54.6489 7.5015 54.6629 10.1391 54.6629C10.1391 53.9365 10.1391 53.2732 10.1391 52.5326C9.11878 52.5326 8.12374 52.5347 7.12871 52.5321C5.61514 52.5281 5.58239 52.2849 5.52934 51.2607C5.38409 48.4567 5.32476 45.6319 5.52364 42.8338C5.71206 40.1827 7.49267 39.2538 9.83645 39.3926C10.2112 39.4148 10.5888 39.3957 11.0905 39.3957C10.2995 37.9571 9.91249 36.4939 10.3051 34.9239C10.7109 33.3013 11.7723 32.1752 13.2907 31.3972C15.6218 30.2028 18.2868 30.6508 20.0795 32.3584C21.8652 34.0593 22.5221 36.6642 20.8063 39.3957C21.5094 39.3957 22.1965 39.43 22.8785 39.3887C24.4452 39.2939 26.4324 40.8872 26.3859 42.6608C26.3124 45.4699 26.3687 48.2818 26.3651 51.0926C26.3637 52.2169 26.021 52.532 24.8266 52.5325C23.8614 52.5329 22.8962 52.5326 21.8911 52.5326C21.8911 53.2601 21.8911 53.9235 21.8911 54.625C24.0665 54.625 26.2129 54.625 28.3981 54.625C28.3981 43.1004 28.3981 31.6082 28.3981 20.0453C28.0242 20.0453 27.6874 20.0453 27.3506 20.0453C19.1015 20.0453 10.8523 20.0457 2.60321 20.045C1.29966 20.0449 0.960383 19.7269 0.959774 18.5057C0.958479 15.9021 0.957525 13.2985 0.960228 10.6949C0.961448 9.52069 1.29286 9.21634 2.55094 9.21631C7.69137 9.21618 12.8318 9.21625 17.9644 9.21625C18.3427 7.42719 18.0521 6.72832 16.6716 6.18324C16.3743 6.06585 16.0224 6.02811 15.6954 6.02738C11.3043 6.01755 6.913 6.03331 2.52208 6.00172C2.07528 5.99851 1.49863 5.84051 1.22599 5.55047C1.00064 5.31075 0.987271 4.70072 1.15359 4.38171C1.31391 4.07423 1.82288 3.74428 2.18187 3.74106C6.88627 3.69893 11.5934 3.63509 16.2951 3.74924C18.3423 3.79894 20.2631 5.27798 20.5351 7.43722C20.6068 8.00646 20.7106 8.57212 20.8058 9.17893C26.5724 9.17893 32.3583 9.17893 38.2229 9.17893C38.2229 7.38128 38.2628 5.61339 38.2117 3.84784C38.1606 2.0812 39.7808 0.362633 41.7311 0.518944C42.8296 0.606986 43.9798 0.546259 45.012 0.844253C46.5584 1.29065 47.0219 2.58728 47.0579 3.98878C47.1018 5.69887 47.0684 7.41071 47.0684 9.21625C47.4825 9.21625 47.85 9.2444 48.2113 9.21182C51.183 8.94378 53.9415 11.959 53.8864 14.5076C53.754 20.6288 53.8435 26.7542 53.8435 33.0047C55.2528 33.0047 56.6496 32.9755 58.0445 33.0111C60.6542 33.0776 62.9398 33.9551 65.0163 35.4447C67.0868 36.9301 68.5162 38.8417 69.2943 41.1329C69.726 42.4043 69.9585 43.7809 69.9967 45.1173C70.0932 48.4877 70.0293 51.8622 70.0283 55.2351C70.0279 56.4955 69.7206 56.7931 68.4274 56.7932C63.9763 56.7933 59.5253 56.7932 55.0709 56.7932C54.281 60.2242 52.4254 62.8086 48.7986 63.9443C45.2027 65.0703 41.9705 64.3549 39.2443 61.8988C37.878 60.6679 37.0726 59.0894 36.6925 57.3223C36.6475 57.1132 36.269 56.817 36.0433 56.8156C31.3444 56.7861 26.6452 56.7933 21.898 56.7933C21.898 57.5097 21.898 58.1762 21.8986 58.8431C23.9317 59.2301 25.5047 60.2451 25.2372 63.3528ZM31.0518 23.1447C30.9959 23.8665 30.8973 24.588 30.8917 25.3102C30.872 27.8574 30.884 30.4048 30.884 32.9419C35.5009 32.9419 40.0523 32.9419 44.5574 32.9419C44.5574 28.6081 44.5574 24.3372 44.5574 20.0577C39.9832 20.0577 35.4734 20.0577 30.9605 20.0577C30.9605 21.0637 30.9605 22.0573 31.0518 23.1447ZM41.9895 50.4846C40.2665 51.4734 38.5015 53.9677 39.1516 57.023C39.7616 59.8899 42.6492 62.0235 45.4755 62.13C47.8741 62.2204 49.728 61.2879 51.166 59.571C53.3627 56.9481 53.0228 53.1633 50.2832 50.9297C47.9223 49.0048 45.0158 48.6664 41.9895 50.4846ZM48.3055 20.0453C47.9095 20.0453 47.5136 20.0453 47.1182 20.0453C47.1182 24.4123 47.1182 28.6841 47.1182 32.9568C48.5616 32.9568 49.9546 32.9568 51.3466 32.9568C51.3466 28.6368 51.3466 24.3651 51.3466 20.0453C50.3617 20.0453 49.4263 20.0453 48.3055 20.0453ZM14.7001 52.3896C14.959 51.6993 15.4293 51.1647 16.2461 51.323C17.1033 51.489 17.1852 52.1992 17.1497 52.9123C17.1233 53.4429 17.1445 53.9755 17.1445 54.5073C17.1445 55.9714 17.1445 57.4354 17.1445 58.8657C17.97 58.8657 18.6728 58.8657 19.345 58.8657C19.345 56.0168 19.345 53.226 19.345 50.455C17.08 50.455 14.8734 50.455 12.6798 50.455C12.6798 53.299 12.6798 56.0902 12.6798 58.8739C13.3731 58.8739 14.0133 58.8739 14.6981 58.8739C14.6981 56.7316 14.6981 54.6387 14.7001 52.3896ZM13.965 38.797C14.1584 38.8803 14.3591 38.9513 14.5441 39.0488C15.7968 39.709 16.9713 39.4956 18.0192 38.6821C19.056 37.8772 19.51 36.8206 19.2115 35.5393C18.9121 34.2536 18.0029 33.4754 16.7102 33.2072C15.2897 32.9124 14.0809 33.3448 13.192 34.5071C12.21 35.7912 12.5715 37.666 13.965 38.797ZM40.6695 4.05806C40.6695 5.76248 40.6695 7.46691 40.6695 9.16666C42.0405 9.16666 43.3082 9.16666 44.565 9.16666C44.5907 9.06272 44.616 9.00792 44.6162 8.95307C44.6197 7.71076 44.603 6.46816 44.6254 5.22618C44.6697 2.77389 44.4753 2.78278 42.1267 2.80422C41.2456 2.81227 40.7957 3.10525 40.6695 4.05806ZM10.1811 44.2784C10.1811 43.4307 10.1811 42.583 10.1811 41.7509C8.63561 41.5301 7.97666 41.8136 8.09813 43.4978C8.1681 44.4679 8.11092 45.4461 8.11094 46.4207C8.11096 47.6787 8.11095 48.9366 8.11095 50.1704C8.86628 50.1704 9.50651 50.1704 10.1811 50.1704C10.1811 48.2294 10.1811 46.3426 10.1811 44.2784ZM21.984 50.2128C22.6239 50.2128 23.2638 50.2128 23.9197 50.2128C23.9197 47.8583 23.9199 45.6186 23.9196 43.3789C23.9195 41.895 23.5186 41.5786 21.8608 41.7939C21.8608 44.5545 21.8608 47.3211 21.984 50.2128ZM66.2739 40.3703C66.0063 39.9828 65.7386 39.5952 65.4558 39.1856C64.1284 40.555 63.887 41.7528 64.7085 43.1706C65.3506 44.2786 66.3214 44.7941 67.7462 44.6191C67.2807 43.2141 66.8262 41.8423 66.2739 40.3703Z" fill="#744ACC"/>
<path d="M45.6162 51C49.0159 51.0317 51.0639 53.2325 50.9985 56.2423C50.9612 57.9566 49.6376 59.9693 48.0827 60.5711C46.0851 61.3444 44.2897 61.092 42.6133 59.6503C39.7951 57.2265 40.8244 52.2365 44.4939 51.2772C44.8394 51.1868 45.1912 51.1207 45.6162 51ZM48.1609 54.9764C47.6465 54.2037 46.9665 53.64 46.0151 53.5827C45.1611 53.5312 44.0054 54.4532 43.7468 55.2833C43.465 56.1877 43.827 57.2969 44.5701 57.8063C45.6281 58.5315 46.5173 58.538 47.4166 57.838C48.1779 57.2456 48.6632 56.2438 48.1609 54.9764Z" fill="#744ACC"/>
</g>
<defs>
<clipPath id="clip0_348_4234">
<rect width="71" height="66" fill="white"/>
</clipPath>
</defs>
</svg>
