<svg width="24" height="24" viewBox="0 0 24 24" fill="none" xmlns="http://www.w3.org/2000/svg">
<path d="M4.5 24C4.14583 24 3.84896 23.8789 3.60938 23.6368C3.36979 23.3947 3.25 23.0947 3.25 22.7368V20.1474C2.875 19.7263 2.57292 19.2579 2.34375 18.7421C2.11458 18.2263 2 17.6632 2 17.0526V5.05263C2 3.30526 2.80208 2.02632 4.40625 1.21579C6.01042 0.405263 8.54167 0 12 0C15.5833 0 18.1458 0.389474 19.6875 1.16842C21.2292 1.94737 22 3.24211 22 5.05263V17.0526C22 17.6632 21.8854 18.2263 21.6562 18.7421C21.4271 19.2579 21.125 19.7263 20.75 20.1474V22.7368C20.75 23.0947 20.6302 23.3947 20.3906 23.6368C20.151 23.8789 19.8542 24 19.5 24H18.25C17.8958 24 17.599 23.8789 17.3594 23.6368C17.1198 23.3947 17 23.0947 17 22.7368V21.4737H7V22.7368C7 23.0947 6.88021 23.3947 6.64062 23.6368C6.40104 23.8789 6.10417 24 5.75 24H4.5ZM4.5 10.1053H19.5V6.31579H4.5V10.1053ZM7.625 17.6842C8.14583 17.6842 8.58854 17.5 8.95312 17.1316C9.31771 16.7632 9.5 16.3158 9.5 15.7895C9.5 15.2632 9.31771 14.8158 8.95312 14.4474C8.58854 14.0789 8.14583 13.8947 7.625 13.8947C7.10417 13.8947 6.66146 14.0789 6.29688 14.4474C5.93229 14.8158 5.75 15.2632 5.75 15.7895C5.75 16.3158 5.93229 16.7632 6.29688 17.1316C6.66146 17.5 7.10417 17.6842 7.625 17.6842ZM16.375 17.6842C16.8958 17.6842 17.3385 17.5 17.7031 17.1316C18.0677 16.7632 18.25 16.3158 18.25 15.7895C18.25 15.2632 18.0677 14.8158 17.7031 14.4474C17.3385 14.0789 16.8958 13.8947 16.375 13.8947C15.8542 13.8947 15.4115 14.0789 15.0469 14.4474C14.6823 14.8158 14.5 15.2632 14.5 15.7895C14.5 16.3158 14.6823 16.7632 15.0469 17.1316C15.4115 17.5 15.8542 17.6842 16.375 17.6842ZM5.0625 3.78947H19.0625C18.75 3.43158 18.0781 3.13158 17.0469 2.88947C16.0156 2.64737 14.3542 2.52632 12.0625 2.52632C9.83333 2.52632 8.20313 2.65789 7.17188 2.92105C6.14063 3.18421 5.4375 3.47368 5.0625 3.78947ZM7 18.9474H17C17.6875 18.9474 18.276 18.7 18.7656 18.2053C19.2552 17.7105 19.5 17.1158 19.5 16.4211V12.6316H12H4.5V16.4211C4.5 17.1158 4.74479 17.7105 5.23438 18.2053C5.72396 18.7 6.3125 18.9474 7 18.9474Z" fill="currentColor"/>
</svg>
