<svg width="49" height="49" viewBox="0 0 49 49" fill="none" xmlns="http://www.w3.org/2000/svg">
<rect x="46.9796" y="46.9801" width="45.36" height="45.36" rx="22.68" transform="rotate(-180 46.9796 46.9801)" fill="#9E80DB"/>
<rect x="46.9796" y="46.9801" width="45.36" height="45.36" rx="22.68" transform="rotate(-180 46.9796 46.9801)" stroke="#744ACC" stroke-width="3.24"/>
<path d="M22.549 41.3454C23.0559 43.1015 25.5441 43.1015 26.051 41.3454L29.6968 28.7162C30.0332 27.5509 29.1587 26.3882 27.9458 26.3882L20.6542 26.3882C19.4413 26.3882 18.5668 27.5509 18.9032 28.7162L22.549 41.3454Z" fill="#CDCDCD" stroke="#7B7B7B" stroke-width="1.215" stroke-linejoin="bevel"/>
<path d="M26.0621 7.68973C25.5853 5.87822 23.0139 5.87821 22.5371 7.68973L18.8522 21.6911C18.548 22.8467 19.4197 23.9774 20.6147 23.9774L27.9846 23.9774C29.1796 23.9774 30.0512 22.8467 29.747 21.6911L26.0621 7.68973Z" fill="#744ACC" stroke="#7B7B7B" stroke-width="1.215" stroke-linejoin="bevel"/>
</svg>
