<svg width="25" height="24" viewBox="0 0 25 24" fill="none" xmlns="http://www.w3.org/2000/svg">
<path d="M12.3332 14.4L11.677 15.1546C12.0532 15.4818 12.6131 15.4818 12.9893 15.1546L12.3332 14.4ZM7.20633 15.2543C7.73761 15.1035 8.04599 14.5505 7.89512 14.0192C7.74424 13.4879 7.19125 13.1795 6.65997 13.3304L7.20633 15.2543ZM18.0063 13.3304C17.4751 13.1795 16.9221 13.4879 16.7712 14.0192C16.6203 14.5505 16.9287 15.1035 17.46 15.2543L18.0063 13.3304ZM16.1332 7.09568C16.1332 7.64025 15.9178 8.31643 15.5037 9.08168C15.0968 9.83355 14.5416 10.592 13.9661 11.2802C13.3933 11.9651 12.8176 12.5598 12.3839 12.9841C12.1676 13.1957 11.9881 13.3634 11.8639 13.4772C11.8018 13.5341 11.7536 13.5774 11.7217 13.6059C11.7057 13.6201 11.6938 13.6306 11.6863 13.6373C11.6825 13.6406 11.6798 13.643 11.6782 13.6443C11.6775 13.645 11.677 13.6454 11.6767 13.6456C11.6766 13.6457 11.6766 13.6457 11.6766 13.6457C11.6767 13.6457 11.6767 13.6456 11.6768 13.6456C11.6769 13.6455 11.677 13.6454 12.3332 14.4C12.9893 15.1546 12.9895 15.1545 12.9897 15.1543C12.9897 15.1543 12.9899 15.1541 12.9901 15.154C12.9904 15.1537 12.9908 15.1533 12.9913 15.1529C12.9923 15.1521 12.9935 15.151 12.995 15.1497C12.9981 15.147 13.0023 15.1433 13.0076 15.1386C13.0182 15.1293 13.0332 15.116 13.0524 15.0989C13.0908 15.0647 13.1457 15.0153 13.2149 14.9519C13.3532 14.8252 13.5487 14.6424 13.7824 14.4138C14.2487 13.9577 14.873 13.3132 15.5002 12.5633C16.1247 11.8167 16.7695 10.9448 17.2626 10.0336C17.7485 9.13579 18.1332 8.11632 18.1332 7.09568H16.1332ZM12.3332 14.4C12.9893 13.6454 12.9895 13.6455 12.9896 13.6456C12.9896 13.6456 12.9896 13.6457 12.9897 13.6457C12.9897 13.6457 12.9897 13.6457 12.9896 13.6456C12.9893 13.6454 12.9888 13.645 12.9881 13.6443C12.9865 13.643 12.9838 13.6406 12.98 13.6373C12.9725 13.6306 12.9606 13.6201 12.9446 13.6059C12.9127 13.5774 12.8645 13.5341 12.8024 13.4772C12.6782 13.3634 12.4987 13.1957 12.2824 12.9841C11.8487 12.5598 11.273 11.9651 10.7002 11.2802C10.1247 10.592 9.56952 9.83355 9.16263 9.08168C8.74849 8.31643 8.53316 7.64025 8.53316 7.09568H6.53316C6.53316 8.11632 6.91782 9.13579 7.40368 10.0336C7.89679 10.9448 8.54165 11.8167 9.16608 12.5633C9.79329 13.3132 10.4176 13.9577 10.8839 14.4138C11.1176 14.6424 11.3131 14.8252 11.4514 14.9519C11.5206 15.0153 11.5755 15.0647 11.6139 15.0989C11.6331 15.116 11.6481 15.1293 11.6587 15.1386C11.664 15.1433 11.6682 15.147 11.6713 15.1497C11.6728 15.151 11.674 15.1521 11.675 15.1529C11.6755 15.1533 11.6759 15.1537 11.6762 15.154C11.6764 15.1541 11.6766 15.1543 11.6766 15.1543C11.6768 15.1545 11.677 15.1546 12.3332 14.4ZM8.53316 7.09568C8.53316 5.07523 10.2136 3.40002 12.3332 3.40002V1.40002C9.15074 1.40002 6.53316 3.92945 6.53316 7.09568H8.53316ZM12.3332 3.40002C14.4527 3.40002 16.1332 5.07523 16.1332 7.09568H18.1332C18.1332 3.92945 15.5156 1.40002 12.3332 1.40002V3.40002ZM20.9332 17.6C20.9332 17.804 20.8382 18.0888 20.477 18.4446C20.1122 18.8039 19.5331 19.1736 18.7368 19.5054C17.1485 20.1671 14.8851 20.6 12.3332 20.6V22.6C15.0831 22.6 17.6197 22.1375 19.506 21.3515C20.4469 20.9595 21.2737 20.4672 21.8805 19.8694C22.4909 19.2682 22.9332 18.5007 22.9332 17.6H20.9332ZM12.3332 20.6C9.78122 20.6 7.51778 20.1671 5.92954 19.5054C5.13324 19.1736 4.55412 18.8039 4.18935 18.4446C3.82811 18.0888 3.73315 17.804 3.73315 17.6H1.73315C1.73315 18.5007 2.17546 19.2682 2.78579 19.8694C3.39259 20.4672 4.21936 20.9595 5.16031 21.3515C7.04659 22.1375 9.58316 22.6 12.3332 22.6V20.6ZM3.73315 17.6C3.73315 17.349 3.8842 16.9618 4.4929 16.4927C5.09158 16.0312 6.01176 15.5936 7.20633 15.2543L6.65997 13.3304C5.31922 13.7112 4.1394 14.2399 3.27192 14.9086C2.41445 15.5695 1.73315 16.4762 1.73315 17.6H3.73315ZM17.46 15.2543C18.6545 15.5936 19.5747 16.0312 20.1734 16.4927C20.7821 16.9618 20.9332 17.349 20.9332 17.6H22.9332C22.9332 16.4762 22.2519 15.5695 21.3944 14.9086C20.5269 14.2399 19.3471 13.7112 18.0063 13.3304L17.46 15.2543Z" fill="#1E1E1E"/>
</svg>
