<svg width="25" height="24" viewBox="0 0 25 24" fill="none" xmlns="http://www.w3.org/2000/svg">
<path d="M6.06689 19.2C6.52806 18.6835 8.68794 16.3067 9.3209 16.3067H16.0133C16.9305 16.3067 18.8029 18.2769 19.2669 18.9714M22.2669 12C22.2669 17.302 17.9688 21.6 12.6669 21.6C7.36496 21.6 3.06689 17.302 3.06689 12C3.06689 6.69809 7.36496 2.40002 12.6669 2.40002C17.9688 2.40002 22.2669 6.69809 22.2669 12ZM16.1057 8.72798C16.1057 6.89647 14.5596 5.40002 12.6672 5.40002C10.7748 5.40002 9.22863 6.89647 9.22863 8.72798C9.22863 10.5595 10.7748 12.0559 12.6672 12.0559C14.5596 12.0559 16.1057 10.5595 16.1057 8.72798Z" stroke="currentColor" stroke-width="2"/>
</svg>
