<svg width="24" height="24" viewBox="0 0 24 24" fill="none" xmlns="http://www.w3.org/2000/svg">
<path d="M12 0C18.6274 0 24 5.37258 24 12C24 18.6274 18.6274 24 12 24C5.37258 24 0 18.6274 0 12C0 5.37258 5.37258 0 12 0ZM12 2C6.47715 2 2 6.47715 2 12C2 17.5228 6.47715 22 12 22C17.5228 22 22 17.5228 22 12C22 6.47715 17.5228 2 12 2ZM12 16.5C12.5523 16.5 13 16.9477 13 17.5C13 18.0523 12.5523 18.5 12 18.5C11.4477 18.5 11 18.0523 11 17.5C11 16.9477 11.4477 16.5 12 16.5ZM8.14667 8.173C8.79391 6.33306 10.6738 5.22821 12.5962 5.55795C14.5186 5.88769 15.9229 7.55587 15.92 9.50485C15.92 10.7846 15.1618 11.7955 13.9747 12.5869C13.6091 12.8306 13.2472 13.0269 12.92 13.1789V14.5048H10.92V11.7841L11.6038 11.5562C11.6686 11.5345 11.8031 11.4833 11.9826 11.4035C12.2857 11.2688 12.5885 11.1074 12.8653 10.9228C13.5532 10.4642 13.92 9.97512 13.92 9.50337C13.9215 8.52813 13.2193 7.69404 12.2581 7.52916C11.2969 7.36429 10.357 7.91672 10.0333 8.83669L9.70149 9.78002L7.81482 9.11634L8.14667 8.173Z" fill="#1E1E1E"/>
</svg>
