<svg width="24" height="24" viewBox="0 0 24 24" fill="none" xmlns="http://www.w3.org/2000/svg">
<path d="M6.15385 24L9.38462 8.26046L7.30769 9.04186V12.8372H5V7.5907L10.8269 5.1907C11.0962 5.07907 11.3798 5.01395 11.6779 4.99535C11.976 4.97674 12.2596 5.01395 12.5288 5.10698C12.7981 5.2 13.0529 5.33023 13.2933 5.49767C13.5337 5.66512 13.7308 5.87907 13.8846 6.13953L15.0385 7.92558C15.5385 8.70698 16.2163 9.34884 17.0721 9.85116C17.9279 10.3535 18.9038 10.6047 20 10.6047V12.8372C18.6538 12.8372 17.4519 12.5674 16.3942 12.0279C15.3365 11.4884 14.4327 10.8 13.6827 9.96279L12.9615 13.3953L15.3846 15.6279V24H13.0769V16.7442L10.6538 14.9581L8.57692 24H6.15385ZM13.6538 4.46512C13.0192 4.46512 12.476 4.24651 12.024 3.8093C11.5721 3.37209 11.3462 2.84651 11.3462 2.23256C11.3462 1.6186 11.5721 1.09302 12.024 0.655814C12.476 0.218605 13.0192 0 13.6538 0C14.2885 0 14.8317 0.218605 15.2837 0.655814C15.7356 1.09302 15.9615 1.6186 15.9615 2.23256C15.9615 2.84651 15.7356 3.37209 15.2837 3.8093C14.8317 4.24651 14.2885 4.46512 13.6538 4.46512Z" fill="currentColor"/>
</svg>
